<mxfile host="app.diagrams.net" modified="2024-07-12T09:52:33.028Z" agent="Mozilla/5.0 (Macintosh; Intel Mac OS X 10.15; rv:127.0) Gecko/20100101 Firefox/127.0" version="24.6.5" etag="c2TJZ8Ev9biG4bWdNQb2" type="github">
  <diagram name="Page-1" id="n60w3HLT-dUHpBBZzqRT">
    <mxGraphModel>
      <root>
        <mxCell id="0" />
        <mxCell id="1" parent="0" />
      </root>
    </mxGraphModel>
  </diagram>
</mxfile>
